<?xml version="1.0" encoding="iso-8859-1"?>
<!-- Generator: Adobe Illustrator 19.0.0, SVG Export Plug-In . SVG Version: 6.00 Build 0)  -->
<svg version="1.1" id="Capa_1" xmlns="http://www.w3.org/2000/svg" xmlns:xlink="http://www.w3.org/1999/xlink" x="0px" y="0px"
	 viewBox="0 0 512 512" style="enable-background:new 0 0 512 512;" xml:space="preserve">
<path style="fill:#7984EB;" d="M263.676,512H99.324c-12.788,0-25.167-4.594-34.857-12.934c-9.692-8.343-16.075-19.9-17.973-32.544
	L19.601,288.335c-2.311-15.396,2.188-30.981,12.341-42.771C42.101,233.766,56.857,227,72.429,227h218.142
	c15.572,0,30.329,6.766,40.487,18.563c10.153,11.79,14.651,27.375,12.343,42.76l-26.896,178.211
	c-1.896,12.632-8.279,24.189-17.971,32.532C288.843,507.406,276.463,512,263.676,512z"/>
<path style="fill:#4B5BE4;" d="M331.058,245.563C320.899,233.766,306.143,227,290.571,227h-109.07v285h82.175
	c12.788,0,25.167-4.594,34.857-12.934c9.692-8.343,16.075-19.9,17.971-32.532L343.4,288.323
	C345.709,272.938,341.211,257.354,331.058,245.563z"/>
<path style="fill:#9331B1;" d="M222.7,512h-82.4L83.102,227h196.796L222.7,512z"/>
<polygon style="fill:#671F7C;" points="279.898,227 181.5,227 181.5,512 222.7,512 "/>
<path style="fill:#FFB64C;" d="M222.7,512h-82.4l-35.781-178.288L172.866,227h17.269l68.347,106.712L222.7,512z"/>
<polygon style="fill:#FFA81F;" points="258.481,333.712 190.134,227 181.5,227 181.5,512 222.7,512 "/>
<path style="fill:#FFF5CB;" d="M181.5,257c-57.897,0-105-47.103-105-105s47.103-105,105-105s105,47.103,105,105
	S239.397,257,181.5,257z"/>
<path style="fill:#FFDBA9;" d="M181.5,47v210c57.897,0,105-47.103,105-105S239.397,47,181.5,47z"/>
<g>
	<path style="fill:#7984EB;" d="M294.5,130h-226V65c0-35.841,29.159-65,65-65h96c35.841,0,65,29.159,65,65V130z"/>
	<circle style="fill:#7984EB;" cx="151.5" cy="166" r="15"/>
</g>
<circle style="fill:#4B5BE4;" cx="211.5" cy="166" r="15"/>
<path style="fill:#EE2500;" d="M511.5,361h-246V259.431L208.474,191H511.5V361z"/>
<g>
	<circle style="fill:#FFA81F;" cx="386.5" cy="276" r="15"/>
	<circle style="fill:#FFA81F;" cx="436.5" cy="276" r="15"/>
	<circle style="fill:#FFA81F;" cx="336.5" cy="276" r="15"/>
</g>
<path style="fill:#4B5BE4;" d="M294.5,65c0-35.841-29.159-65-65-65h-48v130h113V65z"/>
<rect x="0.5" y="100" style="fill:#9331B1;" width="362" height="30"/>
<rect x="181.5" y="100" style="fill:#671F7C;" width="181" height="30"/>
<g>
</g>
<g>
</g>
<g>
</g>
<g>
</g>
<g>
</g>
<g>
</g>
<g>
</g>
<g>
</g>
<g>
</g>
<g>
</g>
<g>
</g>
<g>
</g>
<g>
</g>
<g>
</g>
<g>
</g>
</svg>
